<?xml version="1.0" standalone="no"?>
<!DOCTYPE svg PUBLIC "-//W3C//DTD SVG 20010904//EN"
 "http://www.w3.org/TR/2001/REC-SVG-20010904/DTD/svg10.dtd">
<svg version="1.0" xmlns="http://www.w3.org/2000/svg"
 width="580.000000pt" height="751.000000pt" viewBox="0 0 580.000000 751.000000"
 preserveAspectRatio="xMidYMid meet">

<g transform="translate(0.000000,751.000000) scale(0.100000,-0.100000)"
fill="#000000" stroke="none">
<path d="M2452 6345 c-379 -45 -721 -166 -1040 -365 -548 -343 -937 -916
-1062 -1565 -41 -216 -45 -257 -45 -560 0 -239 4 -324 18 -415 83 -533 274
-957 602 -1338 138 -160 278 -282 472 -410 274 -180 562 -292 913 -354 171
-30 586 -32 755 -5 326 54 612 153 881 305 65 37 131 76 145 85 27 18 27 18
47 -15 10 -18 53 -97 93 -175 l74 -143 358 0 357 0 0 804 c0 522 4 832 11 882
16 116 48 168 129 210 29 15 66 19 223 22 l187 4 0 344 0 344 -1190 0 -1190 0
0 -344 0 -344 238 -4 c230 -3 239 -4 287 -28 67 -34 112 -94 120 -163 4 -30 5
-157 3 -283 -4 -207 -6 -235 -27 -293 -33 -95 -85 -167 -160 -222 -355 -262
-859 -290 -1246 -68 -372 212 -633 662 -720 1239 -37 247 -39 613 -4 844 91
601 410 1035 876 1192 328 111 703 50 1034 -169 221 -146 392 -348 679 -802
34 -55 64 -101 65 -103 4 -5 628 199 637 207 5 4 -3 45 -16 91 -13 47 -37 137
-55 200 -17 63 -53 196 -80 295 -28 99 -100 364 -161 590 -61 225 -116 417
-121 426 -8 16 -32 18 -248 18 l-239 0 -43 -72 c-23 -40 -53 -88 -65 -108
l-23 -37 -118 58 c-196 97 -462 176 -725 216 -143 21 -483 27 -626 9z"/>
</g>
</svg>
